<mxfile host="app.diagrams.net" agent="Mozilla/5.0 (Windows NT 10.0; Win64; x64) AppleWebKit/537.36 (KHTML, like Gecko) Chrome/134.0.0.0 Safari/537.36 OPR/119.0.0.0" version="27.1.6">
  <diagram name="Seite-1" id="iMJrfqDf3NAn2drU-nZh">
    <mxGraphModel dx="791" dy="432" grid="1" gridSize="10" guides="1" tooltips="1" connect="1" arrows="1" fold="1" page="1" pageScale="1" pageWidth="827" pageHeight="1169" math="0" shadow="0">
      <root>
        <mxCell id="0" />
        <mxCell id="1" parent="0" />
        <mxCell id="UTbR-SrUhBWDzpOneXPT-6" style="edgeStyle=orthogonalEdgeStyle;rounded=0;orthogonalLoop=1;jettySize=auto;html=1;exitX=1;exitY=0.5;exitDx=0;exitDy=0;entryX=0;entryY=0.5;entryDx=0;entryDy=0;" parent="1" source="UTbR-SrUhBWDzpOneXPT-1" target="UTbR-SrUhBWDzpOneXPT-5" edge="1">
          <mxGeometry relative="1" as="geometry" />
        </mxCell>
        <mxCell id="UTbR-SrUhBWDzpOneXPT-1" value="&lt;div style=&quot;line-height: 100%;&quot;&gt;&lt;b&gt;&amp;nbsp; &amp;nbsp; &amp;nbsp; Input Vector Sampling:&lt;/b&gt;&lt;div&gt;&lt;font style=&quot;font-size: 8px; line-height: 100%;&quot;&gt;&lt;span style=&quot;white-space: pre;&quot;&gt;&#x9;&amp;nbsp;&lt;/span&gt;&amp;nbsp; &amp;nbsp; -&amp;nbsp;random, 22 dimensional vector&lt;/font&gt;&lt;br&gt;&lt;/div&gt;&lt;div&gt;&lt;font style=&quot;font-size: 8px; line-height: 100%;&quot;&gt;&lt;span style=&quot;white-space: pre;&quot;&gt;&#x9;&lt;/span&gt;&amp;nbsp; &amp;nbsp; &amp;nbsp;- Norm: fixed or range&lt;/font&gt;&lt;/div&gt;&lt;/div&gt;" style="shape=step;perimeter=stepPerimeter;whiteSpace=wrap;html=1;fixedSize=1;size=20;align=left;" parent="1" vertex="1">
          <mxGeometry x="160" y="120" width="160" height="80" as="geometry" />
        </mxCell>
        <mxCell id="UTbR-SrUhBWDzpOneXPT-13" style="edgeStyle=orthogonalEdgeStyle;rounded=0;orthogonalLoop=1;jettySize=auto;html=1;exitX=1;exitY=0.5;exitDx=0;exitDy=0;" parent="1" source="UTbR-SrUhBWDzpOneXPT-5" target="UTbR-SrUhBWDzpOneXPT-8" edge="1">
          <mxGeometry relative="1" as="geometry" />
        </mxCell>
        <mxCell id="UTbR-SrUhBWDzpOneXPT-16" value="X" style="edgeLabel;html=1;align=center;verticalAlign=middle;resizable=0;points=[];" parent="UTbR-SrUhBWDzpOneXPT-13" vertex="1" connectable="0">
          <mxGeometry x="0.6987" relative="1" as="geometry">
            <mxPoint as="offset" />
          </mxGeometry>
        </mxCell>
        <mxCell id="UTbR-SrUhBWDzpOneXPT-19" value="&lt;font style=&quot;font-size: 10px;&quot;&gt;Vector of 202 parameters&lt;/font&gt;" style="edgeLabel;html=1;align=center;verticalAlign=middle;resizable=0;points=[];" parent="UTbR-SrUhBWDzpOneXPT-13" vertex="1" connectable="0">
          <mxGeometry x="-0.2519" y="-1" relative="1" as="geometry">
            <mxPoint as="offset" />
          </mxGeometry>
        </mxCell>
        <mxCell id="UTbR-SrUhBWDzpOneXPT-5" value="&lt;div style=&quot;line-height: 100%;&quot;&gt;&lt;b&gt;&lt;span style=&quot;white-space: pre;&quot;&gt;&#x9;&lt;/span&gt;AOM Simulation:&lt;/b&gt;&lt;div&gt;&lt;font style=&quot;font-size: 8px; line-height: 100%;&quot;&gt;&lt;span style=&quot;white-space: pre;&quot;&gt;&#x9;&lt;span style=&quot;white-space: pre;&quot;&gt;&#x9;&lt;/span&gt;&lt;/span&gt;- mathematical Model&lt;/font&gt;&lt;br&gt;&lt;/div&gt;&lt;div&gt;&lt;font style=&quot;font-size: 8px; line-height: 100%;&quot;&gt;&lt;span style=&quot;white-space: pre;&quot;&gt;&#x9;&lt;/span&gt;&lt;span style=&quot;white-space: pre;&quot;&gt;&#x9;&lt;/span&gt;- not 100% accurate&lt;br&gt;&lt;/font&gt;&lt;/div&gt;&lt;div&gt;&lt;font style=&quot;font-size: 8px; line-height: 100%;&quot;&gt;&lt;span style=&quot;white-space: pre;&quot;&gt;&#x9;&lt;/span&gt;&lt;span style=&quot;white-space: pre;&quot;&gt;&#x9;&lt;/span&gt;- but similar in &lt;b&gt;non-linearity&lt;/b&gt;&lt;/font&gt;&lt;/div&gt;&lt;/div&gt;" style="shape=step;perimeter=stepPerimeter;whiteSpace=wrap;html=1;fixedSize=1;size=20;align=left;" parent="1" vertex="1">
          <mxGeometry x="400" y="120" width="160" height="80" as="geometry" />
        </mxCell>
        <mxCell id="UTbR-SrUhBWDzpOneXPT-8" value="&lt;b&gt;Training Data&amp;nbsp; &amp;nbsp; &amp;nbsp;&amp;nbsp;&lt;/b&gt;" style="strokeWidth=2;html=1;shape=mxgraph.flowchart.multi-document;whiteSpace=wrap;align=center;" parent="1" vertex="1">
          <mxGeometry x="680" y="200" width="140" height="120" as="geometry" />
        </mxCell>
        <mxCell id="UTbR-SrUhBWDzpOneXPT-12" style="edgeStyle=orthogonalEdgeStyle;rounded=0;orthogonalLoop=1;jettySize=auto;html=1;exitX=1;exitY=0.5;exitDx=0;exitDy=0;entryX=0;entryY=0.586;entryDx=0;entryDy=0;entryPerimeter=0;" parent="1" source="UTbR-SrUhBWDzpOneXPT-1" target="UTbR-SrUhBWDzpOneXPT-8" edge="1">
          <mxGeometry relative="1" as="geometry">
            <Array as="points">
              <mxPoint x="360" y="160" />
              <mxPoint x="360" y="270" />
            </Array>
          </mxGeometry>
        </mxCell>
        <mxCell id="UTbR-SrUhBWDzpOneXPT-17" value="Y" style="edgeLabel;html=1;align=center;verticalAlign=middle;resizable=0;points=[];" parent="UTbR-SrUhBWDzpOneXPT-12" vertex="1" connectable="0">
          <mxGeometry x="0.8566" relative="1" as="geometry">
            <mxPoint as="offset" />
          </mxGeometry>
        </mxCell>
        <mxCell id="UTbR-SrUhBWDzpOneXPT-18" value="&lt;font style=&quot;font-size: 10px;&quot;&gt;Vector of 22 parameters&lt;/font&gt;" style="edgeLabel;html=1;align=center;verticalAlign=middle;resizable=0;points=[];" parent="UTbR-SrUhBWDzpOneXPT-12" vertex="1" connectable="0">
          <mxGeometry x="-0.531" y="-1" relative="1" as="geometry">
            <mxPoint y="-10" as="offset" />
          </mxGeometry>
        </mxCell>
        <mxCell id="UTbR-SrUhBWDzpOneXPT-20" value="X = Input of Model&lt;br&gt;Y = Output of Model&amp;nbsp; &amp;nbsp;" style="text;html=1;align=left;verticalAlign=middle;resizable=0;points=[];autosize=1;strokeColor=default;fillColor=none;" parent="1" vertex="1">
          <mxGeometry x="680" y="120" width="140" height="40" as="geometry" />
        </mxCell>
      </root>
    </mxGraphModel>
  </diagram>
</mxfile>
